# xmcd CD database file
#
# Track frame offsets:
#	150
#	27619
#	51826
#	74423
#	81462
#	101710
#	139198
#	146272
#	179411
#	199210
#
# Disc length: 3084 seconds
#
# Revision: 0
# Processed by: cddbd v1.5.2PL0 Copyright (c) Steve Scherf et al.
# Submitted via: CDex 1.51
#
DISCID=9a0c0a0a
DTITLE=Kitaro - Celestial Scenery 07-Fairy Stories
DYEAR=2011
DGENRE=New Age
TTITLE0=Mysterious Encounter
TTITLE1=Flying Celestial Nymphs
TTITLE2=Contortionists
TTITLE3=The Tailor
TTITLE4=Costume Shop
TTITLE5=Lady Of Dreams
TTITLE6=The Wizard
TTITLE7=Galina
TTITLE8=Linden
TTITLE9=Orochi
EXTD=YEAR: 2011
EXTT0=
EXTT1=
EXTT2=
EXTT3=
EXTT4=
EXTT5=
EXTT6=
EXTT7=
EXTT8=
EXTT9=
PLAYORDER=
